USFL
nRows=257
nColumns=2
inDegrees=yes
endheader
time	tib_ant_r	
3.95867	 49.981825	
3.99194	 49.986032	
4.0252	 49.972181	
4.05847	 49.976000	
4.09173	 49.976379	
4.125	 49.984256	
4.15827	 49.987957	
4.19153	 49.998412	
4.2248	 49.996699	
4.25806	 50.005483	
4.29133	 50.003549	
4.3246	 49.976354	
4.35786	 49.977205	
4.39113	 49.985584	
4.4244	 49.971946	
4.45766	 49.965077	
4.49093	 49.973930	
4.52419	 49.967247	
4.55746	 49.981635	
4.59073	 49.970889	
4.62399	 49.979345	
4.65726	 49.974531	
4.69052	 49.974750	
4.72379	 49.969268	
4.75706	 49.962437	
4.79032	 49.975486	
4.82359	 49.978946	
4.85685	 49.985318	
4.89012	 49.976995	
4.92339	 49.978562	
4.95665	 49.989891	
4.98992	 49.985673	
5.02319	 49.970508	
5.05645	 49.969489	
5.08972	 49.966086	
5.12298	 49.955364	
5.15625	 49.957689	
5.18952	 49.957492	
5.22278	 49.944598	
5.25605	 49.952068	
5.28931	 49.945907	
5.32258	 49.964931	
5.35585	 49.946683	
5.38911	 49.934596	
5.42238	 49.947428	
5.45565	 49.947026	
5.48891	 49.927773	
5.52218	 49.928409	
5.55544	 49.957584	
5.58871	 49.972091	
5.62198	 49.960399	
5.65524	 49.971307	
5.68851	 49.993274	
5.72177	 49.983300	
5.75504	 49.973202	
5.78831	 49.968110	
5.82157	 49.981361	
5.85484	 50.006983	
5.8881	 50.009943	
5.92137	 50.011427	
5.95464	 50.013380	
5.9879	 50.016804	
6.02117	 50.014029	
6.05444	 49.992598	
6.0877	 49.992003	
6.12097	 49.970021	
6.15423	 49.986765	
6.1875	 50.004067	
6.22077	 50.016270	
6.25403	 49.997740	
6.2873	 50.006107	
6.32056	 49.996400	
6.35383	 49.991605	
6.3871	 49.982340	
6.42036	 49.957388	
6.45363	 49.968522	
6.4869	 49.938505	
6.52016	 49.938598	
6.55343	 49.957957	
6.58669	 49.940760	
6.61996	 49.956114	
6.65323	 49.979657	
6.68649	 49.978983	
6.71976	 49.990048	
6.75302	 49.973287	
6.78629	 49.994815	
6.81956	 50.008022	
6.85282	 49.596814	
6.88609	 49.189864	
6.91935	 48.695455	
6.95262	 48.291065	
6.98589	 48.228936	
7.01915	 47.779600	
7.05242	 47.450974	
7.08569	 46.988718	
7.11895	 46.998829	
7.15222	 46.918140	
7.18548	 46.364680	
7.21875	 46.403785	
7.25202	 46.227466	
7.28528	 46.084030	
7.31855	 45.788176	
7.35181	 45.677060	
7.38508	 45.613958	
7.41835	 45.573116	
7.45161	 45.475843	
7.48488	 45.541313	
7.51815	 45.638826	
7.55141	 45.547873	
7.58468	 45.620082	
7.61794	 45.676962	
7.65121	 45.722019	
7.68448	 45.800640	
7.71774	 45.733320	
7.75101	 45.694227	
7.78427	 45.706547	
7.81754	 45.620975	
7.85081	 45.672967	
7.88407	 45.721615	
7.91734	 45.659352	
7.9506	 45.674452	
7.98387	 45.666311	
8.01714	 45.660986	
8.0504	 45.734733	
8.08367	 45.876281	
8.11694	 45.899719	
8.1502	 45.840359	
8.18347	 45.832721	
8.21673	 45.984997	
8.25	 45.887717	
8.28327	 45.785109	
8.31653	 45.852618	
8.3498	 45.819542	
8.38306	 45.730942	
8.41633	 45.636170	
8.4496	 45.644904	
8.48286	 45.638226	
8.51613	 45.624813	
8.5494	 45.818839	
8.58266	 45.849254	
8.61593	 45.722001	
8.64919	 45.663674	
8.68246	 45.708149	
8.71573	 45.657648	
8.74899	 45.689788	
8.78226	 45.663411	
8.81552	 45.642365	
8.84879	 45.621770	
8.88206	 45.700835	
8.91532	 45.687044	
8.94859	 45.721902	
8.98185	 45.756148	
9.01512	 45.690127	
9.04839	 45.663764	
9.08165	 45.713566	
9.11492	 45.702284	
9.14819	 45.730307	
9.18145	 45.711032	
9.21472	 45.705491	
9.24798	 45.737124	
9.28125	 45.711936	
9.31452	 45.726230	
9.34778	 45.711826	
9.38105	 45.676227	
9.41431	 45.687311	
9.44758	 45.585049	
9.48085	 45.521794	
9.51411	 45.508269	
9.54738	 45.502659	
9.58065	 45.464617	
9.61391	 45.453277	
9.64718	 45.420131	
9.68044	 45.374397	
9.71371	 45.416698	
9.74698	 45.363496	
9.78024	 45.272782	
9.81351	 45.261214	
9.84677	 45.316173	
9.88004	 45.310767	
9.91331	 45.249289	
9.94657	 45.244950	
9.97984	 45.352404	
10.0131	 45.370268	
10.0464	 45.385614	
10.0796	 45.411085	
10.1129	 45.381298	
10.1462	 45.363314	
10.1794	 45.396238	
10.2127	 45.423665	
10.246	 45.404567	
10.2792	 45.333400	
10.3125	 45.368983	
10.3458	 45.338423	
10.379	 45.341736	
10.4123	 45.325025	
10.4456	 45.305997	
10.4788	 45.193199	
10.5121	 45.209460	
10.5454	 45.328868	
10.5786	 45.226948	
10.6119	 45.184039	
10.6452	 45.182359	
10.6784	 45.354411	
10.7117	 45.366127	
10.745	 45.245594	
10.7782	 45.200201	
10.8115	 45.149282	
10.8448	 45.252777	
10.878	 45.211312	
10.9113	 45.169940	
10.9446	 45.205323	
10.9778	 45.223747	
11.0111	 45.205599	
11.0444	 45.227471	
11.0776	 45.257953	
11.1109	 45.161351	
11.1442	 45.279535	
11.1774	 45.481651	
11.2107	 45.897192	
11.244	 45.995379	
11.2772	 45.687787	
11.3105	 46.099707	
11.3437	 46.781938	
11.377	 47.343196	
11.4103	 48.106162	
11.4435	 48.457237	
11.4768	 48.534413	
11.5101	 48.669900	
11.5433	 48.650191	
11.5766	 48.766785	
11.6099	 48.791144	
11.6431	 48.706727	
11.6764	 48.435613	
11.7097	 48.051078	
11.7429	 47.737266	
11.7762	 47.573277	
11.8095	 47.555489	
11.8427	 47.427012	
11.876	 47.152513	
11.9093	 47.098991	
11.9425	 47.123660	
11.9758	 47.104284	
12.0091	 47.299760	
12.0423	 47.324505	
12.0756	 47.302472	
12.1089	 47.316190	
12.1421	 47.406598	
12.1754	 47.426666	
12.2087	 47.503746	
12.2419	 47.450664	
12.2752	 47.378033	
12.3085	 47.304672	
12.3417	 47.294334	
12.375	 47.303102	
12.4083	 47.286884	
12.4415	 47.313722	
12.4748	 47.299909	
